<svg width="24" height="24" viewBox="0 0 24 24" fill="none" xmlns="http://www.w3.org/2000/svg">
  <path d="M3 11H11V3H3V11ZM5 5H9V9H5V5Z" fill="currentColor"/>
  <path d="M3 21H11V13H3V21ZM5 15H9V19H5V15Z" fill="currentColor"/>
  <path d="M13 3V11H21V3H13ZM19 9H15V5H19V9Z" fill="currentColor"/>
  <path d="M13 13H15V15H13V13Z" fill="currentColor"/>
  <path d="M15 15H17V17H15V15Z" fill="currentColor"/>
  <path d="M13 17H15V19H13V17Z" fill="currentColor"/>
  <path d="M17 17H19V19H17V17Z" fill="currentColor"/>
  <path d="M15 19H17V21H15V19Z" fill="currentColor"/>
  <path d="M17 13H19V15H17V13Z" fill="currentColor"/>
  <path d="M19 15H21V17H19V15Z" fill="currentColor"/>
  <path d="M17 19H19V21H17V19Z" fill="currentColor"/>
  <path d="M19 19H21V21H19V19Z" fill="currentColor"/>
</svg>